<svg width="152" height="47" viewBox="0 0 152 47" fill="none" xmlns="http://www.w3.org/2000/svg">
<path d="M0.207062 36V9.504H7.11906V20.928H6.73506C6.73506 18.176 7.07106 15.904 7.74306 14.112C8.44706 12.288 9.47106 10.928 10.8151 10.032C12.1591 9.104 13.8071 8.64 15.7591 8.64H16.1431C18.1271 8.64 19.7751 9.104 21.0871 10.032C22.4311 10.928 23.4391 12.288 24.1111 14.112C24.8151 15.904 25.1671 18.176 25.1671 20.928H23.1511C23.1511 18.176 23.4871 15.904 24.1591 14.112C24.8631 12.288 25.8871 10.928 27.2311 10.032C28.5751 9.104 30.2231 8.64 32.1751 8.64H32.5591C34.5431 8.64 36.2071 9.104 37.5511 10.032C38.9271 10.928 39.9671 12.288 40.6711 14.112C41.4071 15.904 41.7751 18.176 41.7751 20.928V36H33.0391V20.688C33.0391 19.472 32.7031 18.464 32.0311 17.664C31.3911 16.832 30.4631 16.416 29.2471 16.416C28.0311 16.416 27.0711 16.832 26.3671 17.664C25.6951 18.464 25.3591 19.504 25.3591 20.784V36H16.6231V20.688C16.6231 19.472 16.2871 18.464 15.6151 17.664C14.9751 16.832 14.0471 16.416 12.8311 16.416C11.6151 16.416 10.6551 16.832 9.95106 17.664C9.27906 18.464 8.94306 19.504 8.94306 20.784V36H0.207062ZM60.8446 36.96C58.5086 36.96 56.4286 36.608 54.6046 35.904C52.7806 35.2 51.2286 34.224 49.9486 32.976C48.7006 31.728 47.7406 30.288 47.0686 28.656C46.4286 27.024 46.1086 25.28 46.1086 23.424V22.272C46.1086 20.352 46.4446 18.56 47.1166 16.896C47.8206 15.232 48.8126 13.776 50.0926 12.528C51.3726 11.28 52.9246 10.304 54.7486 9.6C56.5726 8.896 58.6046 8.544 60.8446 8.544C63.1166 8.544 65.1486 8.896 66.9406 9.6C68.7646 10.304 70.3166 11.28 71.5966 12.528C72.8766 13.776 73.8526 15.232 74.5246 16.896C75.2286 18.56 75.5806 20.352 75.5806 22.272V23.424C75.5806 25.28 75.2446 27.024 74.5726 28.656C73.9326 30.288 72.9726 31.728 71.6926 32.976C70.4446 34.224 68.9086 35.2 67.0846 35.904C65.2606 36.608 63.1806 36.96 60.8446 36.96ZM60.8446 29.664C62.1886 29.664 63.2926 29.376 64.1566 28.8C65.0526 28.224 65.7246 27.424 66.1726 26.4C66.6206 25.344 66.8446 24.16 66.8446 22.848C66.8446 21.472 66.6046 20.272 66.1246 19.248C65.6766 18.192 65.0046 17.36 64.1086 16.752C63.2126 16.144 62.1246 15.84 60.8446 15.84C59.5646 15.84 58.4766 16.144 57.5806 16.752C56.6846 17.36 55.9966 18.192 55.5166 19.248C55.0686 20.272 54.8446 21.472 54.8446 22.848C54.8446 24.16 55.0686 25.344 55.5166 26.4C55.9646 27.424 56.6366 28.224 57.5326 28.8C58.4286 29.376 59.5326 29.664 60.8446 29.664ZM80.3633 36V9.504H87.2753V20.88H86.8913C86.8913 18.128 87.2433 15.856 87.9473 14.064C88.6513 12.24 89.6913 10.88 91.0673 9.984C92.4753 9.088 94.1713 8.64 96.1553 8.64H96.5393C99.5473 8.64 101.867 9.648 103.499 11.664C105.163 13.648 105.995 16.704 105.995 20.832V36H97.2593V20.592C97.2593 19.376 96.8913 18.384 96.1553 17.616C95.4513 16.816 94.4753 16.416 93.2273 16.416C91.9793 16.416 90.9713 16.816 90.2033 17.616C89.4673 18.384 89.0993 19.408 89.0993 20.688V36H80.3633ZM112.247 36V0.959999H120.983V36H112.247ZM109.271 7.296V0.959999H120.983V7.296H109.271ZM127.618 46.56V39.264H133.714C134.45 39.264 135.074 39.168 135.586 38.976C136.098 38.784 136.514 38.464 136.834 38.016C137.154 37.6 137.394 37.008 137.554 36.24L143.506 9.504H151.762L144.802 37.92C144.29 40.096 143.57 41.808 142.642 43.056C141.746 44.336 140.498 45.232 138.898 45.744C137.33 46.288 135.282 46.56 132.754 46.56H127.618ZM136.018 35.424V28.704H141.586V35.424H136.018ZM131.986 35.424L124.258 9.504H132.994L140.242 35.424H131.986Z" fill="#2939C3"/>
</svg>
